<svg width="12" height="9" viewBox="0 0 12 9" fill="none" xmlns="http://www.w3.org/2000/svg">
<path id="Vector" d="M11.3879 2.98231L8.87805 0.209356C8.75672 0.0753053 8.59217 0 8.4206 0C8.24903 0 8.08448 0.0753053 7.96314 0.209356C7.84184 0.343447 7.7737 0.52529 7.7737 0.714895C7.7737 0.9045 7.84184 1.08634 7.96314 1.22043L10.2634 3.76386H1.60212C1.43051 3.76386 1.26593 3.83919 1.14459 3.97329C1.02325 4.10739 0.955078 4.28926 0.955078 4.47891C0.955078 4.66855 1.02325 4.85042 1.14459 4.98452C1.26593 5.11862 1.43051 5.19395 1.60212 5.19395H10.3028L7.96314 7.77885C7.90298 7.84526 7.85526 7.92412 7.8227 8.01093C7.79014 8.09773 7.77338 8.19078 7.77338 8.28475C7.77338 8.37872 7.79014 8.47176 7.8227 8.55857C7.85526 8.64537 7.90298 8.72424 7.96314 8.79064C8.08448 8.9247 8.24903 9 8.4206 9C8.59217 9 8.75672 8.9247 8.87805 8.79064L11.3886 6.01697C11.7515 5.61381 11.9552 5.0682 11.9551 4.49949C11.955 3.93079 11.751 3.38529 11.3879 2.98231Z" fill="#757575"/>
</svg>
