<svg width="17" height="17" viewBox="0 0 17 17" fill="none" xmlns="http://www.w3.org/2000/svg">
<g id="ic24-tag 1">
<g id="Group">
<path id="Vector" fill-rule="evenodd" clip-rule="evenodd" d="M7.18207 1.46509C7.70077 1.46509 8.19777 1.67336 8.56461 2.04467L14.1414 7.6894C14.3231 7.87317 14.4672 8.09138 14.5655 8.33154C14.6639 8.57171 14.7145 8.82913 14.7145 9.0891C14.7145 9.34907 14.6639 9.60649 14.5655 9.84666C14.4672 10.0868 14.3231 10.305 14.1414 10.4888L10.481 14.1938C10.2994 14.3777 10.0838 14.5236 9.84655 14.6231C9.60927 14.7226 9.35494 14.7738 9.0981 14.7738C8.84126 14.7738 8.58693 14.7226 8.34966 14.6231C8.11238 14.5236 7.8968 14.3777 7.71523 14.1938L2.1384 8.54912C1.95685 8.36534 1.81284 8.14718 1.71459 7.90707C1.61635 7.66697 1.56578 7.40963 1.5658 7.14974V3.44404C1.5658 2.91919 1.77178 2.41583 2.13844 2.04471C2.50511 1.67358 3.0024 1.46509 3.52094 1.46509H7.18207ZM7.18207 2.79592H3.52094C3.35112 2.79592 3.18825 2.8642 3.06817 2.98575C2.94808 3.1073 2.88062 3.27215 2.88062 3.44404V7.14974C2.88062 7.32142 2.94833 7.48644 3.06798 7.60822L8.64481 13.2529C8.89463 13.5058 9.30091 13.5058 9.55073 13.2529L13.2119 9.54724C13.2714 9.48705 13.3186 9.41558 13.3508 9.33691C13.383 9.25825 13.3996 9.17392 13.3996 9.08877C13.3996 9.00361 13.383 8.91929 13.3508 8.84062C13.3186 8.76196 13.2714 8.69049 13.2119 8.6303L7.63503 2.98557C7.57546 2.92531 7.50472 2.87755 7.42689 2.84501C7.34905 2.81247 7.26563 2.79579 7.18141 2.79592H7.18207ZM5.51027 4.12676C5.85898 4.12676 6.19342 4.26697 6.43999 4.51655C6.68657 4.76613 6.8251 5.10463 6.8251 5.45759C6.8251 5.81055 6.68657 6.14905 6.43999 6.39863C6.19342 6.64821 5.85898 6.78842 5.51027 6.78842C5.16156 6.78842 4.82713 6.64821 4.58055 6.39863C4.33397 6.14905 4.19545 5.81055 4.19545 5.45759C4.19545 5.10463 4.33397 4.76613 4.58055 4.51655C4.82713 4.26697 5.16156 4.12676 5.51027 4.12676Z" fill="#7AC751"/>
</g>
</g>
</svg>
