<svg width="24" height="24" viewBox="0 0 24 24" fill="none" xmlns="http://www.w3.org/2000/svg">
<g id="Circle">
<g id="Group">
<path id="Vector" d="M12 0C9.62662 0 7.30655 0.703788 5.33316 2.02236C3.35977 3.34094 1.8217 5.21508 0.91345 7.4078C0.0051994 9.60051 -0.23244 12.0133 0.230582 14.3411C0.693604 16.6688 1.83649 18.807 3.51472 20.4853C5.19295 22.1635 7.33115 23.3064 9.65892 23.7694C11.9867 24.2324 14.3995 23.9948 16.5922 23.0865C18.7849 22.1783 20.6591 20.6402 21.9776 18.6668C23.2962 16.6934 24 14.3734 24 12C23.9964 8.81851 22.7309 5.76838 20.4813 3.51873C18.2316 1.26908 15.1815 0.00362976 12 0ZM12 20.5714C10.3047 20.5714 8.64753 20.0687 7.23797 19.1269C5.82841 18.185 4.72979 16.8464 4.08104 15.2801C3.43229 13.7139 3.26254 11.9905 3.59327 10.3278C3.924 8.6651 4.74035 7.13782 5.93909 5.93908C7.13782 4.74035 8.6651 3.924 10.3278 3.59327C11.9905 3.26254 13.7139 3.43228 15.2801 4.08103C16.8464 4.72978 18.185 5.8284 19.1269 7.23797C20.0687 8.64753 20.5714 10.3047 20.5714 12C20.5687 14.2724 19.6648 16.451 18.0579 18.0579C16.451 19.6648 14.2724 20.5687 12 20.5714Z" fill="#7AC751"/>
</g>
<circle id="Ellipse 19" cx="12" cy="12" r="4" fill="#7AC751"/>
</g>
</svg>
