<svg width="24" height="24" viewBox="0 0 24 24" fill="none" xmlns="http://www.w3.org/2000/svg">
<g id="Heart">
<path id="Vector" d="M11.777 21.1556L3.53614 12.9051C2.44321 11.811 1.82915 10.3271 1.82906 8.77973C1.82897 7.23237 2.44285 5.74836 3.53565 4.65414C4.62845 3.55993 6.11066 2.94516 7.65621 2.94507C9.20175 2.94498 10.684 3.55958 11.777 4.65366C12.8704 3.56081 14.3523 2.94702 15.8974 2.94702C17.4424 2.94702 18.9243 3.56081 20.0178 4.65366C21.1089 5.74865 21.7216 7.2322 21.7216 8.7789C21.7216 10.3256 21.1089 11.8092 20.0178 12.9041L11.777 21.1556ZM7.65607 4.88994C6.88763 4.88991 6.13644 5.11805 5.49752 5.54548C4.8586 5.97292 4.36064 6.58046 4.06663 7.29126C3.77262 8.00206 3.69577 8.78419 3.84579 9.53873C3.99581 10.2933 4.36597 10.9863 4.90945 11.5302L11.777 18.4058L18.6445 11.5302C19.0389 11.1441 19.3467 10.6783 19.5474 10.1638C19.748 9.64933 19.8369 9.09797 19.8082 8.54641C19.7794 7.99486 19.6337 7.45576 19.3806 6.96499C19.1276 6.47422 18.773 6.04303 18.3405 5.70013C17.9081 5.35722 17.4076 5.11046 16.8725 4.97626C16.3374 4.84206 15.7798 4.8235 15.237 4.92182C14.6941 5.02014 14.1784 5.23308 13.7242 5.54647C13.2699 5.85986 12.8876 6.26652 12.6025 6.73937L11.777 8.07345L10.9514 6.73937C10.6106 6.17057 10.1273 5.70085 9.54921 5.37678C8.97116 5.0527 8.31854 4.88555 7.65607 4.89189V4.88994Z" fill="#757575"/>
</g>
</svg>
