<svg width="31" height="30" viewBox="0 0 31 30" fill="none" xmlns="http://www.w3.org/2000/svg">
<g id="refresh 1" clip-path="url(#clip0_2_379)">
<g id="Group">
<path id="Vector" d="M9.86464 9.43722C10.6251 8.61688 11.5091 8.00026 12.4509 7.57618C15.5807 6.16691 19.3897 6.89416 21.7576 9.59891L23.3933 8.19766C23.4842 8.11981 23.63 8.19183 23.6387 8.31382L24.0455 13.8018C24.0505 13.8932 23.9662 13.9654 23.88 13.9436L18.5301 12.696C18.4082 12.6653 18.3625 12.5131 18.4534 12.4353L20.0858 11.0368C18.5209 9.26501 16.1035 8.67947 13.9755 9.35998C13.171 9.6158 12.4104 10.0479 11.7561 10.6703C10.8566 11.5253 10.2928 12.6218 10.0695 13.7812C9.95174 14.3998 9.34542 14.7955 8.73261 14.6507C8.14944 14.5143 7.78532 13.937 7.90071 13.3485C8.17247 11.9168 8.82964 10.5547 9.86464 9.43722ZM21.3205 16.4739C21.1032 17.6338 20.5361 18.7331 19.6338 19.5848C18.9764 20.21 18.213 20.6389 17.4145 20.8952C15.2865 21.5757 12.8659 20.9929 11.3042 19.2184L12.9366 17.8199C13.0275 17.742 12.979 17.5866 12.8599 17.5591L7.5072 16.3083C7.41781 16.2892 7.33343 16.3615 7.34169 16.4501L7.7457 21.9348C7.75718 22.0601 7.90028 22.1288 7.99115 22.051L9.62682 20.6497C11.9915 23.3573 15.8033 24.0878 18.9335 22.6725C19.8753 22.2484 20.7565 21.6285 21.5198 20.8114C22.5576 19.6972 23.2147 18.335 23.4865 16.9034C23.5991 16.3117 23.2378 15.7376 22.6546 15.6012C22.0446 15.4597 21.4383 15.8553 21.3205 16.4739Z" fill="#757575" stroke="white" stroke-width="0.3"/>
</g>
</g>
<defs>
<clipPath id="clip0_2_379">
<rect width="20.9964" height="20.9926" fill="white" transform="matrix(0.649713 0.76018 -0.759427 0.650592 16.8421 0.314331)"/>
</clipPath>
</defs>
</svg>
