<svg width="68" height="11" viewBox="0 0 68 11" fill="none" xmlns="http://www.w3.org/2000/svg">
<g id="review">
<g id="ratings">
<path id="star" d="M17.7302 3.85733L18.0376 3.81471L18.1805 3.53926L19.4653 1.06195C19.4654 1.06191 19.4654 1.06187 19.4654 1.06183C19.467 1.05886 19.4677 1.0583 19.4673 1.05872C19.467 1.05899 19.4672 1.05866 19.4686 1.05787C19.4722 1.0559 19.4818 1.0521 19.4965 1.05215C19.5112 1.05219 19.5217 1.0561 19.5264 1.05874L19.5284 1.06001L19.5288 1.06037L19.5289 1.06042L19.529 1.06064L19.5303 1.06282L19.5303 1.06284L20.8147 3.53926L20.9576 3.81471L21.265 3.85733L24.1399 4.2559L24.1404 4.25596C24.1431 4.25634 24.1456 4.25678 24.1477 4.25724L22.0828 6.17058L21.8418 6.39396L21.9002 6.71737L22.3895 9.42506C22.3821 9.42955 22.3733 9.43251 22.365 9.43324C22.3578 9.43387 22.3496 9.43316 22.3379 9.42733L22.3378 9.42728L19.7659 8.14173L19.4976 8.00764L19.2293 8.14173L16.6574 9.42728L16.6556 9.42821C16.6441 9.43398 16.6363 9.43456 16.6298 9.43399C16.6218 9.43329 16.613 9.43035 16.6056 9.42572L17.095 6.71737L17.1534 6.39396L16.9124 6.17058L14.8475 4.25724C14.8496 4.25678 14.8521 4.25634 14.8548 4.25596L14.8553 4.2559L17.7302 3.85733ZM22.3922 9.44004L22.9826 9.33336C23.0712 9.8255 22.5261 10.1923 22.0695 9.96397L22.3922 9.44004Z" fill="white" stroke="#7AC751" stroke-width="1.2"/>
<path id="star_2" d="M3.62609 3.85757L3.93345 3.81496L4.07632 3.5395L5.36119 1.06219C5.36121 1.06215 5.36123 1.06211 5.36125 1.06207C5.3628 1.0591 5.36356 1.05854 5.36316 1.05896C5.36289 1.05924 5.36309 1.05891 5.36449 1.05812C5.368 1.05615 5.37763 1.05235 5.39231 1.05239C5.40705 1.05244 5.41757 1.05634 5.42225 1.05899L5.42422 1.06025L5.42465 1.06062L5.42469 1.06066L5.42486 1.06088L5.42616 1.06306L5.42618 1.06309L6.71058 3.5395L6.85344 3.81496L7.16081 3.85757L10.0358 4.25615L10.0362 4.2562C10.039 4.25659 10.0414 4.25703 10.0435 4.25748L7.97869 6.17083L7.73763 6.3942L7.79607 6.71761L8.28531 9.42531C8.27796 9.42979 8.26911 9.43276 8.2608 9.43348C8.25365 9.43411 8.24541 9.43341 8.23374 9.42757L8.23365 9.42752L5.66171 8.14197L5.39345 8.00789L5.12519 8.14197L2.55325 9.42752L2.5514 9.42845C2.53995 9.43422 2.53219 9.4348 2.52564 9.43423C2.51763 9.43354 2.50884 9.43059 2.50146 9.42597L2.99083 6.71761L3.04927 6.3942L2.8082 6.17083L0.74338 4.25748C0.745483 4.25703 0.747909 4.25659 0.750685 4.2562L0.751103 4.25615L3.62609 3.85757ZM8.28804 9.44028L8.87846 9.3336C8.96701 9.82574 8.42193 10.1925 7.96539 9.96421L8.28804 9.44028Z" fill="white" stroke="#7AC751" stroke-width="1.2"/>
<path id="star_3" d="M31.8338 3.85733L32.1412 3.81471L32.2841 3.53926L33.5689 1.06195C33.5689 1.06191 33.569 1.06187 33.569 1.06183C33.5705 1.05886 33.5713 1.0583 33.5709 1.05872C33.5706 1.05899 33.5708 1.05866 33.5722 1.05787C33.5757 1.0559 33.5854 1.0521 33.6 1.05215C33.6148 1.05219 33.6253 1.0561 33.63 1.05874L33.632 1.06001L33.6324 1.06037L33.6324 1.06042L33.6326 1.06064L33.6339 1.06282L33.6339 1.06284L34.9183 3.53926L35.0612 3.81471L35.3685 3.85733L38.2435 4.2559L38.2439 4.25596C38.2467 4.25634 38.2491 4.25678 38.2512 4.25724L36.1864 6.17058L35.9454 6.39396L36.0038 6.71737L36.493 9.42506C36.4857 9.42955 36.4768 9.43251 36.4685 9.43324C36.4614 9.43387 36.4531 9.43316 36.4415 9.42733L36.4414 9.42728L33.8694 8.14173L33.6012 8.00764L33.3329 8.14173L30.761 9.42728L30.7591 9.42821C30.7477 9.43398 30.7399 9.43456 30.7334 9.43399C30.7254 9.43329 30.7166 9.43035 30.7092 9.42572L31.1986 6.71737L31.257 6.39396L31.0159 6.17058L28.9511 4.25724C28.9532 4.25678 28.9556 4.25634 28.9584 4.25596L28.9588 4.2559L31.8338 3.85733ZM36.4958 9.44004L37.0862 9.33336C37.1747 9.8255 36.6297 10.1923 36.1731 9.96397L36.4958 9.44004Z" fill="white" stroke="#7AC751" stroke-width="1.2"/>
<path id="star_4" d="M45.9384 3.85733L46.2457 3.81471L46.3886 3.53926L47.6735 1.06195C47.6735 1.06191 47.6735 1.06187 47.6735 1.06183C47.6751 1.05886 47.6759 1.0583 47.6754 1.05872C47.6752 1.05899 47.6754 1.05866 47.6768 1.05787C47.6803 1.0559 47.6899 1.0521 47.7046 1.05215C47.7193 1.05219 47.7299 1.0561 47.7345 1.05874L47.7365 1.06001L47.7369 1.06037L47.737 1.06042L47.7371 1.06064L47.7384 1.06282L47.7385 1.06284L49.0229 3.53926L49.1657 3.81471L49.4731 3.85733L52.3481 4.2559L52.3485 4.25596C52.3513 4.25634 52.3537 4.25678 52.3558 4.25724L50.291 6.17058L50.0499 6.39396L50.1084 6.71737L50.5976 9.42506C50.5903 9.42955 50.5814 9.43251 50.5731 9.43324C50.5659 9.43387 50.5577 9.43316 50.546 9.42733L50.5459 9.42728L47.974 8.14173L47.7057 8.00764L47.4375 8.14173L44.8655 9.42728L44.8637 9.42821C44.8522 9.43398 44.8445 9.43456 44.8379 9.43399C44.8299 9.43329 44.8211 9.43035 44.8137 9.42572L45.3031 6.71737L45.3616 6.39396L45.1205 6.17058L43.0557 4.25724C43.0578 4.25678 43.0602 4.25634 43.063 4.25596L43.0634 4.2559L45.9384 3.85733ZM50.6003 9.44004L51.1907 9.33336C51.2793 9.8255 50.7342 10.1923 50.2777 9.96397L50.6003 9.44004Z" fill="white" stroke="#7AC751" stroke-width="1.2"/>
<path id="star_5" d="M60.0429 3.85733L60.3503 3.81471L60.4932 3.53926L61.778 1.06195C61.778 1.06191 61.7781 1.06187 61.7781 1.06183C61.7796 1.05886 61.7804 1.0583 61.78 1.05872C61.7797 1.05899 61.7799 1.05866 61.7813 1.05787C61.7848 1.0559 61.7945 1.0521 61.8092 1.05215C61.8239 1.05219 61.8344 1.0561 61.8391 1.05874L61.8411 1.06001L61.8415 1.06037L61.8415 1.06042L61.8417 1.06064L61.843 1.06282L61.843 1.06284L63.1274 3.53926L63.2703 3.81471L63.5776 3.85733L66.4526 4.2559L66.453 4.25596C66.4558 4.25634 66.4583 4.25678 66.4604 4.25724L64.3955 6.17058L64.1545 6.39396L64.2129 6.71737L64.7022 9.42506C64.6948 9.42955 64.6859 9.43251 64.6776 9.43324C64.6705 9.43387 64.6623 9.43316 64.6506 9.42733L64.6505 9.42728L62.0785 8.14173L61.8103 8.00764L61.542 8.14173L58.9701 9.42728L58.9682 9.42821C58.9568 9.43398 58.949 9.43456 58.9425 9.43399C58.9345 9.43329 58.9257 9.43035 58.9183 9.42572L59.4077 6.71737L59.4661 6.39396L59.225 6.17058L57.1602 4.25724C57.1623 4.25678 57.1647 4.25634 57.1675 4.25596L57.1679 4.2559L60.0429 3.85733ZM64.7049 9.44004L65.2953 9.33336C65.3839 9.8255 64.8388 10.1923 64.3822 9.96397L64.7049 9.44004Z" fill="white" stroke="#7AC751" stroke-width="1.2"/>
</g>
</g>
</svg>
